#!OML:ASF F:\VICON\USERDATA\INSTALL\rory3\rory3.ASF
:FULLY-SPECIFIED
:DEGREES
111
root 5.91829 18.0449 13.4282 -171.703 -26.3367 187.067
lowerback -5.44018 11.8807 5.11716
upperback -6.23112 15.3572 -1.33712
thorax -1.85332 7.3686 -3.32162
lowerneck -8.71091 -4.94951 -5.42635
upperneck 21.4193 -7.63257 4.74925
head 8.47405 -3.82955 1.69296
rclavicle -6.11511e-014 -1.27222e-014
rhumerus 71.4537 -53.4012 219.714
rradius 6.89731
rwrist 75.8966
rhand 22.1467 17.1354
rfingers 7.12502
rthumb 46.5294 -5.73542
lclavicle -6.11511e-014 -1.27222e-014
lhumerus -21.9164 41.0123 -9.75215
lradius 17.2352
lwrist -48.2761
lhand -1.16911 29.4288
lfingers 7.12502
lthumb 24.4701 57.8857
rfemur -16.4241 -1.33133 28.4259
rtibia 22.0915
rfoot 4.51367 -27.4012
rtoes -0.199033
lfemur -41.5882 -9.24338 -0.675191
ltibia 30.4124
lfoot -39.5433 10.6678
ltoes 52.718
112
root 5.8851 18.0233 13.3848 -171.741 -25.221 187.222
lowerback -6.78039 11.8689 5.05129
upperback -4.91432 15.2769 -0.722679
thorax 0.0564569 7.42765 -2.23858
lowerneck -10.534 -4.81902 -6.22238
upperneck 21.413 -7.12962 4.79781
head 8.81334 -3.58238 1.85317
rclavicle -1.98886e-014 2.24627e-014
rhumerus 68.2398 -49.2634 224.747
rradius 6.90633
rwrist 71.435
rhand 22.0651 17.1785
rfingers 7.12502
rthumb 46.4538 -5.72463
lclavicle -1.98886e-014 2.24627e-014
lhumerus -24.5753 42.7198 -11.4822
lradius 17.243
lwrist -48.0958
lhand -1.28443 29.6765
lfingers 7.12502
lthumb 24.3596 58.1483
rfemur -16.4018 -1.28741 28.5034
rtibia 22.4054
rfoot 5.54815 -26.1666
rtoes -3.0012
lfemur -41.3752 -8.94316 -0.362887
ltibia 30.3949
lfoot -38.4965 12.2778
ltoes 52.6876
113
root 5.85232 18.0065 13.3414 -171.637 -24.0683 187.117
lowerback -3.61515 12.8121 5.64772
upperback -7.39028 16.6924 -2.1143
thorax -3.57848 7.9025 -4.78597
lowerneck -8.49773 -5.06772 -5.70068
upperneck 22.3548 -8.17007 5.82811
head 8.84207 -4.03659 2.03839
rclavicle -1.52294e-013 -2.22639e-014
rhumerus 64.2871 -51.3208 228.85
rradius 7.39222
rwrist 66.9186
rhand 22.1531 17.1839
rfingers 7.12502
rthumb 46.5354 -5.68432
lclavicle -1.52294e-013 -2.22639e-014
lhumerus -20.197 36.8739 -9.08383
lradius 17.6357
lwrist -43.7419
lhand -1.59389 30.6361
lfingers 7.12502
lthumb 24.0629 59.1475
rfemur -16.4505 -1.24124 28.3305
rtibia 22.7711
rfoot 6.4057 -24.9849
rtoes -5.93634
lfemur -41.1483 -8.62579 -0.338215
ltibia 30.4347
lfoot -36.8035 15.046
ltoes 51.0006
114
root 5.81639 17.9832 13.2998 -171.552 -22.8184 186.993
lowerback -1.77188 13.5057 5.88197
upperback -8.76018 17.7072 -2.93616
thorax -5.61965 8.21929 -6.29346
lowerneck -7.15404 -5.2012 -5.11057
upperneck 22.6093 -8.73606 6.23445
head 8.70808 -4.28672 2.04926
rclavicle -3.44394e-014 2.8625e-014
rhumerus 60.5193 -51.4059 233.23
rradius 7.85688
rwrist 62.6966
rhand 22.4253 17.5294
rfingers 7.12502
rthumb 46.7873 -5.22996
lclavicle -3.44394e-014 2.8625e-014
lhumerus -18.1613 34.3317 -8.40262
lradius 17.8005
lwrist -41.8373
lhand -1.60832 31.3233
lfingers 7.12502
lthumb 24.049 59.8365
rfemur -16.5336 -1.18719 28.0947
rtibia 23.2378
rfoot 6.95753 -23.6884
rtoes -9.47394
lfemur -40.8548 -8.46605 -0.289159
ltibia 30.5344
lfoot -34.7851 17.283
ltoes 49.5337
115
root 5.77519 17.9529 13.2592 -171.492 -21.6059 187.282
lowerback -3.15536 13.4647 6.00492
upperback -7.56446 17.5926 -2.28768
thorax -3.76154 8.3197 -5.18145
lowerneck -8.41071 -4.98924 -5.47651
upperneck 22.1609 -8.09058 5.85394
head 8.74546 -3.98147 2.02213
rclavicle 6.58971e-014 5.4467e-014
rhumerus 58.67 -46.6632 237.001
rradius 8.09365
rwrist 58.3564
rhand 22.8219 17.4177
rfingers 7.12502
rthumb 47.1543 -5.18027
lclavicle 6.58971e-014 5.4467e-014
lhumerus -21.093 38.0176 -10.6484
lradius 17.5873
lwrist -43.6826
lhand -0.991264 31.1685
lfingers 7.12502
lthumb 24.6406 59.6023
rfemur -16.8257 -1.14929 28.2466
rtibia 23.8295
rfoot 7.05662 -22.3902
rtoes -11.6082
lfemur -40.6809 -7.80183 -0.0407844
ltibia 30.7391
lfoot -32.5789 18.7384
ltoes 49.2033
